<svg xmlns="http://www.w3.org/2000/svg" width="1600" height="900" viewBox="0 0 1600 900" role="img" aria-label="带范围的安全主张由需求设计分析验证集成证据共同支撑"><defs><marker id="a-navy" markerWidth="12" markerHeight="12" refX="10" refY="6" orient="auto"><path d="M1 1 L11 6 L1 11 Z" fill="#17375e"/></marker><marker id="a-teal" markerWidth="12" markerHeight="12" refX="10" refY="6" orient="auto"><path d="M1 1 L11 6 L1 11 Z" fill="#087f83"/></marker><marker id="a-amber" markerWidth="12" markerHeight="12" refX="10" refY="6" orient="auto"><path d="M1 1 L11 6 L1 11 Z" fill="#bd7510"/></marker><marker id="a-red" markerWidth="12" markerHeight="12" refX="10" refY="6" orient="auto"><path d="M1 1 L11 6 L1 11 Z" fill="#c73535"/></marker><marker id="a-gray" markerWidth="12" markerHeight="12" refX="10" refY="6" orient="auto"><path d="M1 1 L11 6 L1 11 Z" fill="#667a8b"/></marker></defs><rect width="1600" height="900" fill="#fcfdfd"/><g font-family="Microsoft YaHei, Noto Sans CJK SC, Arial, sans-serif"><text x="65" y="68" fill="#17375e" font-size="30" font-weight="700" text-anchor="start"><tspan x="65" dy="0">Safety Case 为什么不能只数文件</tspan></text><rect x="55" y="130" width="276.4" height="220" rx="17" fill="#edf4f9" stroke="#17375e" stroke-width="3"/><text x="76" y="175" fill="#17375e" font-size="27" font-weight="700" text-anchor="start"><tspan x="76" dy="0">限定主张</tspan></text><text x="76" y="215" fill="#17375e" font-size="21" font-weight="400" text-anchor="start"><tspan x="76" dy="0">配置 / SG / 情境</tspan><tspan x="76" dy="31.5">故障与时间边界</tspan></text><polyline points="331.4,240 351.4,240" fill="none" stroke="#17375e" stroke-width="4" stroke-linejoin="round" marker-end="url(#a-navy)"/><rect x="358.4" y="130" width="276.4" height="220" rx="17" fill="#edf4f9" stroke="#17375e" stroke-width="3"/><text x="379.4" y="175" fill="#17375e" font-size="27" font-weight="700" text-anchor="start"><tspan x="379.4" dy="0">论证理由</tspan></text><text x="379.4" y="215" fill="#17375e" font-size="21" font-weight="400" text-anchor="start"><tspan x="379.4" dy="0">TSC 分工与故障链</tspan><tspan x="379.4" dy="31.5">AoU 均成立</tspan></text><polyline points="634.8,240 654.8,240" fill="none" stroke="#17375e" stroke-width="4" stroke-linejoin="round" marker-end="url(#a-navy)"/><rect x="661.8" y="130" width="276.4" height="220" rx="17" fill="#edf4f9" stroke="#17375e" stroke-width="3"/><text x="682.8" y="175" fill="#17375e" font-size="27" font-weight="700" text-anchor="start"><tspan x="682.8" dy="0">设计依据</tspan></text><text x="682.8" y="215" fill="#17375e" font-size="21" font-weight="400" text-anchor="start"><tspan x="682.8" dy="0">LRS / RTL / HSI</tspan><tspan x="682.8" dy="31.5">配置一致</tspan></text><polyline points="938.1999999999999,240 958.1999999999999,240" fill="none" stroke="#17375e" stroke-width="4" stroke-linejoin="round" marker-end="url(#a-navy)"/><rect x="965.1999999999999" y="130" width="276.4" height="220" rx="17" fill="#edf4f9" stroke="#17375e" stroke-width="3"/><text x="986.1999999999999" y="175" fill="#17375e" font-size="27" font-weight="700" text-anchor="start"><tspan x="986.1999999999999" dy="0">验证与分析</tspan></text><text x="986.1999999999999" y="215" fill="#17375e" font-size="21" font-weight="400" text-anchor="start"><tspan x="986.1999999999999" dy="0">注入 / 集成时序</tspan><tspan x="986.1999999999999" dy="31.5">FMEDA / DFA</tspan></text><polyline points="1241.6,240 1261.6,240" fill="none" stroke="#17375e" stroke-width="4" stroke-linejoin="round" marker-end="url(#a-navy)"/><rect x="1268.6" y="130" width="276.4" height="220" rx="17" fill="#e5f7f4" stroke="#087f83" stroke-width="3"/><text x="1289.6" y="175" fill="#087f83" font-size="27" font-weight="700" text-anchor="start"><tspan x="1289.6" dy="0">可审查结论</tspan></text><text x="1289.6" y="215" fill="#17375e" font-size="21" font-weight="400" text-anchor="start"><tspan x="1289.6" dy="0">异常与限制可见</tspan><tspan x="1289.6" dy="31.5">版本基线闭合</tspan></text><line x1="55" y1="405" x2="1545" y2="405" stroke="#667a8b" stroke-width="3"/><text x="65" y="460" fill="#bd7510" font-size="30" font-weight="700" text-anchor="start"><tspan x="65" dy="0">一个证据缺口会怎样改变结论</tspan></text><rect x="65" y="505" width="470" height="220" rx="17" fill="#fff3dd" stroke="#bd7510" stroke-width="3"/><text x="86" y="550" fill="#bd7510" font-size="27" font-weight="700" text-anchor="start"><tspan x="86" dy="0">只测 ECC 位错</tspan></text><text x="86" y="590" fill="#17375e" font-size="22" font-weight="400" text-anchor="start"><tspan x="86" dy="0">不覆盖地址译码</tspan><tspan x="86" dy="33">故障模型须收窄</tspan></text><rect x="570" y="505" width="470" height="220" rx="17" fill="#fff3dd" stroke="#bd7510" stroke-width="3"/><text x="591" y="550" fill="#bd7510" font-size="27" font-weight="700" text-anchor="start"><tspan x="591" dy="0">IRQ 被屏蔽</tspan></text><text x="591" y="590" fill="#17375e" font-size="22" font-weight="400" text-anchor="start"><tspan x="591" dy="0">源端 PASS 不等于动作</tspan><tspan x="591" dy="33">需要备用路径证据</tspan></text><rect x="1075" y="505" width="470" height="220" rx="17" fill="#e5f7f4" stroke="#087f83" stroke-width="3"/><text x="1096" y="550" fill="#087f83" font-size="27" font-weight="700" text-anchor="start"><tspan x="1096" dy="0">版本错配</tspan></text><text x="1096" y="590" fill="#17375e" font-size="22" font-weight="400" text-anchor="start"><tspan x="1096" dy="0">V2 RTL 配 V1 报告</tspan><tspan x="1096" dy="33">重跑受影响分析与测试</tspan></text></g></svg>