<svg xmlns="http://www.w3.org/2000/svg" width="1600" height="900" viewBox="0 0 1600 900" role="img" aria-label="一百 FIT 教学账本与 SPFM LFM 的分母和边界"><defs><marker id="a-navy" markerWidth="12" markerHeight="12" refX="10" refY="6" orient="auto"><path d="M1 1 L11 6 L1 11 Z" fill="#17375e"/></marker><marker id="a-teal" markerWidth="12" markerHeight="12" refX="10" refY="6" orient="auto"><path d="M1 1 L11 6 L1 11 Z" fill="#087f83"/></marker><marker id="a-amber" markerWidth="12" markerHeight="12" refX="10" refY="6" orient="auto"><path d="M1 1 L11 6 L1 11 Z" fill="#bd7510"/></marker><marker id="a-red" markerWidth="12" markerHeight="12" refX="10" refY="6" orient="auto"><path d="M1 1 L11 6 L1 11 Z" fill="#c73535"/></marker><marker id="a-gray" markerWidth="12" markerHeight="12" refX="10" refY="6" orient="auto"><path d="M1 1 L11 6 L1 11 Z" fill="#667a8b"/></marker></defs><rect width="1600" height="900" fill="#fcfdfd"/><g font-family="Microsoft YaHei, Noto Sans CJK SC, Arial, sans-serif"><text x="65" y="65" fill="#17375e" font-size="30" font-weight="700" text-anchor="start"><tspan x="65" dy="0">100 FIT 教学账本：数字怎样归类</tspan></text><rect x="60" y="110" width="320" height="70" rx="17" fill="#edf4f9" stroke="#17375e" stroke-width="3"/><text x="78" y="154" fill="#17375e" font-size="24" font-weight="700" text-anchor="start"><tspan x="78" dy="0">模式</tspan></text><rect x="390" y="110" width="370" height="70" rx="17" fill="#edf4f9" stroke="#17375e" stroke-width="3"/><text x="408" y="154" fill="#17375e" font-size="24" font-weight="700" text-anchor="start"><tspan x="408" dy="0">假设失效率</tspan></text><rect x="770" y="110" width="370" height="70" rx="17" fill="#edf4f9" stroke="#17375e" stroke-width="3"/><text x="788" y="154" fill="#17375e" font-size="24" font-weight="700" text-anchor="start"><tspan x="788" dy="0">分类份额</tspan></text><rect x="1150" y="110" width="390" height="70" rx="17" fill="#edf4f9" stroke="#17375e" stroke-width="3"/><text x="1168" y="154" fill="#17375e" font-size="24" font-weight="700" text-anchor="start"><tspan x="1168" dy="0">指标用途</tspan></text><rect x="60" y="194" width="320" height="108" rx="17" fill="#edf4f9" stroke="#17375e" stroke-width="3"/><text x="75" y="234" fill="#17375e" font-size="20" font-weight="700" text-anchor="start"><tspan x="75" dy="0">A：无机制</tspan></text><rect x="390" y="194" width="370" height="108" rx="17" fill="#f2f5f7" stroke="#667a8b" stroke-width="3"/><text x="405" y="234" fill="#17375e" font-size="20" font-weight="400" text-anchor="start"><tspan x="405" dy="0">20 FIT</tspan></text><rect x="770" y="194" width="370" height="108" rx="17" fill="#f2f5f7" stroke="#667a8b" stroke-width="3"/><text x="785" y="234" fill="#17375e" font-size="20" font-weight="400" text-anchor="start"><tspan x="785" dy="0">SPF = 20</tspan></text><rect x="1150" y="194" width="390" height="108" rx="17" fill="#e5f7f4" stroke="#087f83" stroke-width="3"/><text x="1165" y="234" fill="#17375e" font-size="20" font-weight="400" text-anchor="start"><tspan x="1165" dy="0">进入 SPFM 扣减</tspan></text><rect x="60" y="313" width="320" height="108" rx="17" fill="#edf4f9" stroke="#17375e" stroke-width="3"/><text x="75" y="353" fill="#17375e" font-size="20" font-weight="700" text-anchor="start"><tspan x="75" dy="0">B：90% 及时控制</tspan></text><rect x="390" y="313" width="370" height="108" rx="17" fill="#f2f5f7" stroke="#667a8b" stroke-width="3"/><text x="405" y="353" fill="#17375e" font-size="20" font-weight="400" text-anchor="start"><tspan x="405" dy="0">40 FIT</tspan></text><rect x="770" y="313" width="370" height="108" rx="17" fill="#f2f5f7" stroke="#667a8b" stroke-width="3"/><text x="785" y="353" fill="#17375e" font-size="20" font-weight="400" text-anchor="start"><tspan x="785" dy="0">RF = 4；MPF,DP = 36</tspan></text><rect x="1150" y="313" width="390" height="108" rx="17" fill="#e5f7f4" stroke="#087f83" stroke-width="3"/><text x="1165" y="353" fill="#17375e" font-size="20" font-weight="400" text-anchor="start"><tspan x="1165" dy="0">RF 进入扣减</tspan></text><rect x="60" y="432" width="320" height="108" rx="17" fill="#edf4f9" stroke="#17375e" stroke-width="3"/><text x="75" y="472" fill="#17375e" font-size="20" font-weight="700" text-anchor="start"><tspan x="75" dy="0">C：80% 及时自检</tspan></text><rect x="390" y="432" width="370" height="108" rx="17" fill="#f2f5f7" stroke="#667a8b" stroke-width="3"/><text x="405" y="472" fill="#17375e" font-size="20" font-weight="400" text-anchor="start"><tspan x="405" dy="0">30 FIT</tspan></text><rect x="770" y="432" width="370" height="108" rx="17" fill="#f2f5f7" stroke="#667a8b" stroke-width="3"/><text x="785" y="472" fill="#17375e" font-size="20" font-weight="400" text-anchor="start"><tspan x="785" dy="0">MPF,DP = 24</tspan><tspan x="785" dy="30">MPF,L = 6</tspan></text><rect x="1150" y="432" width="390" height="108" rx="17" fill="#e5f7f4" stroke="#087f83" stroke-width="3"/><text x="1165" y="472" fill="#17375e" font-size="20" font-weight="400" text-anchor="start"><tspan x="1165" dy="0">潜伏份额进 LFM</tspan></text><rect x="60" y="551" width="320" height="108" rx="17" fill="#edf4f9" stroke="#17375e" stroke-width="3"/><text x="75" y="591" fill="#17375e" font-size="20" font-weight="700" text-anchor="start"><tspan x="75" dy="0">D：该 SG 安全</tspan></text><rect x="390" y="551" width="370" height="108" rx="17" fill="#f2f5f7" stroke="#667a8b" stroke-width="3"/><text x="405" y="591" fill="#17375e" font-size="20" font-weight="400" text-anchor="start"><tspan x="405" dy="0">10 FIT</tspan></text><rect x="770" y="551" width="370" height="108" rx="17" fill="#f2f5f7" stroke="#667a8b" stroke-width="3"/><text x="785" y="591" fill="#17375e" font-size="20" font-weight="400" text-anchor="start"><tspan x="785" dy="0">安全故障 = 10</tspan></text><rect x="1150" y="551" width="390" height="108" rx="17" fill="#e5f7f4" stroke="#087f83" stroke-width="3"/><text x="1165" y="591" fill="#17375e" font-size="20" font-weight="400" text-anchor="start"><tspan x="1165" dy="0">仍留在总分母</tspan></text><rect x="60" y="670" width="320" height="108" rx="17" fill="#edf4f9" stroke="#17375e" stroke-width="3"/><text x="75" y="710" fill="#17375e" font-size="20" font-weight="700" text-anchor="start"><tspan x="75" dy="0">核账与计算</tspan></text><rect x="390" y="670" width="370" height="108" rx="17" fill="#f2f5f7" stroke="#667a8b" stroke-width="3"/><text x="405" y="710" fill="#17375e" font-size="20" font-weight="400" text-anchor="start"><tspan x="405" dy="0">合计 100 FIT</tspan></text><rect x="770" y="670" width="370" height="108" rx="17" fill="#f2f5f7" stroke="#667a8b" stroke-width="3"/><text x="785" y="710" fill="#17375e" font-size="20" font-weight="400" text-anchor="start"><tspan x="785" dy="0">SPF+RF = 24</tspan><tspan x="785" dy="30">潜伏 MPF = 6</tspan></text><rect x="1150" y="670" width="390" height="108" rx="17" fill="#e5f7f4" stroke="#087f83" stroke-width="3"/><text x="1165" y="710" fill="#17375e" font-size="20" font-weight="400" text-anchor="start"><tspan x="1165" dy="0">SPFM = 76%</tspan><tspan x="1165" dy="30">LFM ≈ 92.1%</tspan></text><rect x="80" y="800" width="1440" height="58" rx="17" fill="#fff3dd" stroke="#bd7510" stroke-width="3"/><text x="800" y="838" fill="#bd7510" font-size="23" font-weight="700" text-anchor="middle"><tspan x="800" dy="0">仅教学假设；指标不等于系统安全概率，也不是目标芯片结果</tspan></text></g></svg>