<svg xmlns="http://www.w3.org/2000/svg" width="1600" height="900" viewBox="0 0 1600 900" role="img" aria-label="ADC 六种量程内外故障和候选诊断观察条件"><defs><marker id="a-navy" markerWidth="12" markerHeight="12" refX="10" refY="6" orient="auto"><path d="M1 1 L11 6 L1 11 Z" fill="#17375e"/></marker><marker id="a-teal" markerWidth="12" markerHeight="12" refX="10" refY="6" orient="auto"><path d="M1 1 L11 6 L1 11 Z" fill="#087f83"/></marker><marker id="a-amber" markerWidth="12" markerHeight="12" refX="10" refY="6" orient="auto"><path d="M1 1 L11 6 L1 11 Z" fill="#bd7510"/></marker><marker id="a-red" markerWidth="12" markerHeight="12" refX="10" refY="6" orient="auto"><path d="M1 1 L11 6 L1 11 Z" fill="#c73535"/></marker><marker id="a-gray" markerWidth="12" markerHeight="12" refX="10" refY="6" orient="auto"><path d="M1 1 L11 6 L1 11 Z" fill="#667a8b"/></marker></defs><rect width="1600" height="900" fill="#fcfdfd"/><g font-family="Microsoft YaHei, Noto Sans CJK SC, Arial, sans-serif"><text x="65" y="65" fill="#17375e" font-size="30" font-weight="700" text-anchor="start"><tspan x="65" dy="0">故障与候选诊断怎样配对</tspan></text><rect x="60" y="110" width="320" height="70" rx="17" fill="#edf4f9" stroke="#17375e" stroke-width="3"/><text x="78" y="154" fill="#17375e" font-size="24" font-weight="700" text-anchor="start"><tspan x="78" dy="0">故障</tspan></text><rect x="390" y="110" width="370" height="70" rx="17" fill="#edf4f9" stroke="#17375e" stroke-width="3"/><text x="408" y="154" fill="#17375e" font-size="24" font-weight="700" text-anchor="start"><tspan x="408" dy="0">范围检查</tspan></text><rect x="770" y="110" width="370" height="70" rx="17" fill="#edf4f9" stroke="#17375e" stroke-width="3"/><text x="788" y="154" fill="#17375e" font-size="24" font-weight="700" text-anchor="start"><tspan x="788" dy="0">更有用的观察</tspan></text><rect x="1150" y="110" width="390" height="70" rx="17" fill="#edf4f9" stroke="#17375e" stroke-width="3"/><text x="1168" y="154" fill="#17375e" font-size="24" font-weight="700" text-anchor="start"><tspan x="1168" dy="0">关键限制</tspan></text><rect x="60" y="194" width="320" height="108" rx="17" fill="#edf4f9" stroke="#17375e" stroke-width="3"/><text x="75" y="234" fill="#17375e" font-size="20" font-weight="700" text-anchor="start"><tspan x="75" dy="0">开路 / 短路</tspan></text><rect x="390" y="194" width="370" height="108" rx="17" fill="#f2f5f7" stroke="#667a8b" stroke-width="3"/><text x="405" y="234" fill="#17375e" font-size="20" font-weight="400" text-anchor="start"><tspan x="405" dy="0">可能越界</tspan></text><rect x="770" y="194" width="370" height="108" rx="17" fill="#f2f5f7" stroke="#667a8b" stroke-width="3"/><text x="785" y="234" fill="#17375e" font-size="20" font-weight="400" text-anchor="start"><tspan x="785" dy="0">前端激励或电气监测</tspan></text><rect x="1150" y="194" width="390" height="108" rx="17" fill="#e5f7f4" stroke="#087f83" stroke-width="3"/><text x="1165" y="234" fill="#17375e" font-size="20" font-weight="400" text-anchor="start"><tspan x="1165" dy="0">中间码可漏检</tspan></text><rect x="60" y="313" width="320" height="108" rx="17" fill="#edf4f9" stroke="#17375e" stroke-width="3"/><text x="75" y="353" fill="#17375e" font-size="20" font-weight="700" text-anchor="start"><tspan x="75" dy="0">增益 / 偏置漂移</tspan></text><rect x="390" y="313" width="370" height="108" rx="17" fill="#f2f5f7" stroke="#667a8b" stroke-width="3"/><text x="405" y="353" fill="#17375e" font-size="20" font-weight="400" text-anchor="start"><tspan x="405" dy="0">常仍量程内</tspan></text><rect x="770" y="313" width="370" height="108" rx="17" fill="#f2f5f7" stroke="#667a8b" stroke-width="3"/><text x="785" y="353" fill="#17375e" font-size="20" font-weight="400" text-anchor="start"><tspan x="785" dy="0">已知输入 / 独立参考</tspan></text><rect x="1150" y="313" width="390" height="108" rx="17" fill="#e5f7f4" stroke="#087f83" stroke-width="3"/><text x="1165" y="353" fill="#17375e" font-size="20" font-weight="400" text-anchor="start"><tspan x="1165" dy="0">角落与容差需测</tspan></text><rect x="60" y="432" width="320" height="108" rx="17" fill="#edf4f9" stroke="#17375e" stroke-width="3"/><text x="75" y="472" fill="#17375e" font-size="20" font-weight="700" text-anchor="start"><tspan x="75" dy="0">通道错选</tspan></text><rect x="390" y="432" width="370" height="108" rx="17" fill="#f2f5f7" stroke="#667a8b" stroke-width="3"/><text x="405" y="472" fill="#17375e" font-size="20" font-weight="400" text-anchor="start"><tspan x="405" dy="0">另一通道也合法</tspan></text><rect x="770" y="432" width="370" height="108" rx="17" fill="#f2f5f7" stroke="#667a8b" stroke-width="3"/><text x="785" y="472" fill="#17375e" font-size="20" font-weight="400" text-anchor="start"><tspan x="785" dy="0">通道特征 / 交叉采样</tspan></text><rect x="1150" y="432" width="390" height="108" rx="17" fill="#e5f7f4" stroke="#087f83" stroke-width="3"/><text x="1165" y="472" fill="#17375e" font-size="20" font-weight="400" text-anchor="start"><tspan x="1165" dy="0">需知道预期身份</tspan></text><rect x="60" y="551" width="320" height="108" rx="17" fill="#edf4f9" stroke="#17375e" stroke-width="3"/><text x="75" y="591" fill="#17375e" font-size="20" font-weight="700" text-anchor="start"><tspan x="75" dy="0">卡在中间值</tspan></text><rect x="390" y="551" width="370" height="108" rx="17" fill="#f2f5f7" stroke="#667a8b" stroke-width="3"/><text x="405" y="591" fill="#17375e" font-size="20" font-weight="400" text-anchor="start"><tspan x="405" dy="0">无法发现</tspan></text><rect x="770" y="551" width="370" height="108" rx="17" fill="#f2f5f7" stroke="#667a8b" stroke-width="3"/><text x="785" y="591" fill="#17375e" font-size="20" font-weight="400" text-anchor="start"><tspan x="785" dy="0">时间变化 / 物理模型</tspan></text><rect x="1150" y="551" width="390" height="108" rx="17" fill="#e5f7f4" stroke="#087f83" stroke-width="3"/><text x="1165" y="591" fill="#17375e" font-size="20" font-weight="400" text-anchor="start"><tspan x="1165" dy="0">稳定工况有歧义</tspan></text><rect x="60" y="670" width="320" height="108" rx="17" fill="#edf4f9" stroke="#17375e" stroke-width="3"/><text x="75" y="710" fill="#17375e" font-size="20" font-weight="700" text-anchor="start"><tspan x="75" dy="0">样本过期</tspan></text><rect x="390" y="670" width="370" height="108" rx="17" fill="#f2f5f7" stroke="#667a8b" stroke-width="3"/><text x="405" y="710" fill="#17375e" font-size="20" font-weight="400" text-anchor="start"><tspan x="405" dy="0">旧值仍合法</tspan></text><rect x="770" y="670" width="370" height="108" rx="17" fill="#f2f5f7" stroke="#667a8b" stroke-width="3"/><text x="785" y="710" fill="#17375e" font-size="20" font-weight="400" text-anchor="start"><tspan x="785" dy="0">序号 / 最大年龄</tspan></text><rect x="1150" y="670" width="390" height="108" rx="17" fill="#e5f7f4" stroke="#087f83" stroke-width="3"/><text x="1165" y="710" fill="#17375e" font-size="20" font-weight="400" text-anchor="start"><tspan x="1165" dy="0">超时动作需定义</tspan></text><rect x="80" y="800" width="1440" height="58" rx="17" fill="#fff3dd" stroke="#bd7510" stroke-width="3"/><text x="800" y="838" fill="#bd7510" font-size="23" font-weight="700" text-anchor="middle"><tspan x="800" dy="0">共享坏参考可让双通道比较一致；候选诊断不等于已取得覆盖率</tspan></text></g></svg>