<svg xmlns="http://www.w3.org/2000/svg" width="1600" height="900" viewBox="0 0 1600 900" role="img" aria-label="安全手册使用假设到目标 SoC 检查的示例矩阵"><defs><marker id="a-navy" markerWidth="12" markerHeight="12" refX="10" refY="6" orient="auto"><path d="M1 1 L11 6 L1 11 Z" fill="#17375e"/></marker><marker id="a-teal" markerWidth="12" markerHeight="12" refX="10" refY="6" orient="auto"><path d="M1 1 L11 6 L1 11 Z" fill="#087f83"/></marker><marker id="a-amber" markerWidth="12" markerHeight="12" refX="10" refY="6" orient="auto"><path d="M1 1 L11 6 L1 11 Z" fill="#bd7510"/></marker><marker id="a-red" markerWidth="12" markerHeight="12" refX="10" refY="6" orient="auto"><path d="M1 1 L11 6 L1 11 Z" fill="#c73535"/></marker><marker id="a-gray" markerWidth="12" markerHeight="12" refX="10" refY="6" orient="auto"><path d="M1 1 L11 6 L1 11 Z" fill="#667a8b"/></marker></defs><rect width="1600" height="900" fill="#fcfdfd"/><g font-family="Microsoft YaHei, Noto Sans CJK SC, Arial, sans-serif"><text x="65" y="65" fill="#17375e" font-size="30" font-weight="700" text-anchor="start"><tspan x="65" dy="0">五项 AoU 如何留下集成证据</tspan></text><rect x="60" y="110" width="320" height="70" rx="17" fill="#edf4f9" stroke="#17375e" stroke-width="3"/><text x="78" y="154" fill="#17375e" font-size="24" font-weight="700" text-anchor="start"><tspan x="78" dy="0">供应方条件</tspan></text><rect x="390" y="110" width="370" height="70" rx="17" fill="#edf4f9" stroke="#17375e" stroke-width="3"/><text x="408" y="154" fill="#17375e" font-size="24" font-weight="700" text-anchor="start"><tspan x="408" dy="0">集成方动作</tspan></text><rect x="770" y="110" width="370" height="70" rx="17" fill="#edf4f9" stroke="#17375e" stroke-width="3"/><text x="788" y="154" fill="#17375e" font-size="24" font-weight="700" text-anchor="start"><tspan x="788" dy="0">观察证据</tspan></text><rect x="1150" y="110" width="390" height="70" rx="17" fill="#edf4f9" stroke="#17375e" stroke-width="3"/><text x="1168" y="154" fill="#17375e" font-size="24" font-weight="700" text-anchor="start"><tspan x="1168" dy="0">未满足时</tspan></text><rect x="60" y="194" width="320" height="108" rx="17" fill="#edf4f9" stroke="#17375e" stroke-width="3"/><text x="75" y="234" fill="#17375e" font-size="20" font-weight="700" text-anchor="start"><tspan x="75" dy="0">SRAM 已初始化</tspan></text><rect x="390" y="194" width="370" height="108" rx="17" fill="#f2f5f7" stroke="#667a8b" stroke-width="3"/><text x="405" y="234" fill="#17375e" font-size="20" font-weight="400" text-anchor="start"><tspan x="405" dy="0">首次安全读前完成</tspan></text><rect x="770" y="194" width="370" height="108" rx="17" fill="#f2f5f7" stroke="#667a8b" stroke-width="3"/><text x="785" y="234" fill="#17375e" font-size="20" font-weight="400" text-anchor="start"><tspan x="785" dy="0">状态与全地址检查</tspan></text><rect x="1150" y="194" width="390" height="108" rx="17" fill="#e5f7f4" stroke="#087f83" stroke-width="3"/><text x="1165" y="234" fill="#17375e" font-size="20" font-weight="400" text-anchor="start"><tspan x="1165" dy="0">禁止放行读取</tspan></text><rect x="60" y="313" width="320" height="108" rx="17" fill="#edf4f9" stroke="#17375e" stroke-width="3"/><text x="75" y="353" fill="#17375e" font-size="20" font-weight="700" text-anchor="start"><tspan x="75" dy="0">UE 不被屏蔽</tspan></text><rect x="390" y="313" width="370" height="108" rx="17" fill="#f2f5f7" stroke="#667a8b" stroke-width="3"/><text x="405" y="353" fill="#17375e" font-size="20" font-weight="400" text-anchor="start"><tspan x="405" dy="0">连接目标告警路径</tspan></text><rect x="770" y="313" width="370" height="108" rx="17" fill="#f2f5f7" stroke="#667a8b" stroke-width="3"/><text x="785" y="353" fill="#17375e" font-size="20" font-weight="400" text-anchor="start"><tspan x="785" dy="0">真实 UE 注入送达</tspan></text><rect x="1150" y="313" width="390" height="108" rx="17" fill="#e5f7f4" stroke="#087f83" stroke-width="3"/><text x="1165" y="353" fill="#17375e" font-size="20" font-weight="400" text-anchor="start"><tspan x="1165" dy="0">改路由或加直达</tspan></text><rect x="60" y="432" width="320" height="108" rx="17" fill="#edf4f9" stroke="#17375e" stroke-width="3"/><text x="75" y="472" fill="#17375e" font-size="20" font-weight="700" text-anchor="start"><tspan x="75" dy="0">CPU 不可用</tspan></text><rect x="390" y="432" width="370" height="108" rx="17" fill="#f2f5f7" stroke="#667a8b" stroke-width="3"/><text x="405" y="472" fill="#17375e" font-size="20" font-weight="400" text-anchor="start"><tspan x="405" dy="0">定义备用动作</tspan></text><rect x="770" y="432" width="370" height="108" rx="17" fill="#f2f5f7" stroke="#667a8b" stroke-width="3"/><text x="785" y="472" fill="#17375e" font-size="20" font-weight="400" text-anchor="start"><tspan x="785" dy="0">CPU 停摆时隔离</tspan></text><rect x="1150" y="432" width="390" height="108" rx="17" fill="#e5f7f4" stroke="#087f83" stroke-width="3"/><text x="1165" y="472" fill="#17375e" font-size="20" font-weight="400" text-anchor="start"><tspan x="1165" dy="0">收窄响应主张</tspan></text><rect x="60" y="551" width="320" height="108" rx="17" fill="#edf4f9" stroke="#17375e" stroke-width="3"/><text x="75" y="591" fill="#17375e" font-size="20" font-weight="700" text-anchor="start"><tspan x="75" dy="0">配置被支持</tspan></text><rect x="390" y="551" width="370" height="108" rx="17" fill="#f2f5f7" stroke="#667a8b" stroke-width="3"/><text x="405" y="591" fill="#17375e" font-size="20" font-weight="400" text-anchor="start"><tspan x="405" dy="0">锁定 ECC / 宏参数</tspan></text><rect x="770" y="551" width="370" height="108" rx="17" fill="#f2f5f7" stroke="#667a8b" stroke-width="3"/><text x="785" y="591" fill="#17375e" font-size="20" font-weight="400" text-anchor="start"><tspan x="785" dy="0">版本与选项对应</tspan></text><rect x="1150" y="551" width="390" height="108" rx="17" fill="#e5f7f4" stroke="#087f83" stroke-width="3"/><text x="1165" y="591" fill="#17375e" font-size="20" font-weight="400" text-anchor="start"><tspan x="1165" dy="0">重新分析验证</tspan></text><rect x="60" y="670" width="320" height="108" rx="17" fill="#edf4f9" stroke="#17375e" stroke-width="3"/><text x="75" y="710" fill="#17375e" font-size="20" font-weight="700" text-anchor="start"><tspan x="75" dy="0">测试按期运行</tspan></text><rect x="390" y="670" width="370" height="108" rx="17" fill="#f2f5f7" stroke="#667a8b" stroke-width="3"/><text x="405" y="710" fill="#17375e" font-size="20" font-weight="400" text-anchor="start"><tspan x="405" dy="0">调度 LBIST / 自检</tspan></text><rect x="770" y="670" width="370" height="108" rx="17" fill="#f2f5f7" stroke="#667a8b" stroke-width="3"/><text x="785" y="710" fill="#17375e" font-size="20" font-weight="400" text-anchor="start"><tspan x="785" dy="0">完成与失败记录</tspan></text><rect x="1150" y="670" width="390" height="108" rx="17" fill="#e5f7f4" stroke="#087f83" stroke-width="3"/><text x="1165" y="710" fill="#17375e" font-size="20" font-weight="400" text-anchor="start"><tspan x="1165" dy="0">调整检测间隔</tspan></text><rect x="80" y="800" width="1440" height="58" rx="17" fill="#fff3dd" stroke="#bd7510" stroke-width="3"/><text x="800" y="838" fill="#bd7510" font-size="23" font-weight="700" text-anchor="middle"><tspan x="800" dy="0">教学核对清单；每项均需目标芯片和 SoC 的执行记录</tspan></text></g></svg>