<?xml version="1.0" encoding="UTF-8" standalone="no"?>
<!DOCTYPE svg PUBLIC "-//W3C//DTD SVG 1.1//EN"
 "http://www.w3.org/Graphics/SVG/1.1/DTD/svg11.dtd">
<!-- Generated by graphviz version 16.0.0 (20260814.1018)
 -->
<!-- Title: local_qkv Pages: 1 -->
<svg width="747pt" height="699pt"
 viewBox="0.00 0.00 747.00 699.00" xmlns="http://www.w3.org/2000/svg" xmlns:xlink="http://www.w3.org/1999/xlink">
<g id="graph0" class="graph" transform="scale(1 1) rotate(0) translate(32.4 666.4)">
<title>local_qkv</title>
<polygon fill="white" stroke="none" points="-32.4,32.4 -32.4,-666.4 715.02,-666.4 715.02,32.4 -32.4,32.4"/>
<!-- 0 -->
<g id="node1" class="node">
<title>0</title>
<polygon fill="lightyellow" stroke="none" points="403.29,-634 279.34,-634 279.34,-600 403.29,-600 403.29,-634"/>
<polygon fill="none" stroke="black" points="279.34,-600 279.34,-634 342.15,-634 342.15,-600 279.34,-600"/>
<text xml:space="preserve" text-anchor="start" x="284.34" y="-619" font-family="Arial" font-size="10.00">input&#45;tensor</text>
<text xml:space="preserve" text-anchor="start" x="294.06" y="-607" font-family="Arial" font-size="10.00">depth:0</text>
<polygon fill="none" stroke="black" points="342.15,-600 342.15,-634 403.29,-634 403.29,-600 342.15,-600"/>
<text xml:space="preserve" text-anchor="start" x="347.15" y="-613" font-family="Arial" font-size="10.00">(1, 2, 2560)</text>
</g>
<!-- 1 -->
<g id="node2" class="node">
<title>1</title>
<polygon fill="#c1ffc1" stroke="none" points="239.63,-564 88.99,-564 88.99,-520 239.63,-520 239.63,-564"/>
<polygon fill="none" stroke="black" points="88.99,-520 88.99,-564 132.35,-564 132.35,-520 88.99,-520"/>
<text xml:space="preserve" text-anchor="start" x="96.77" y="-544" font-family="Arial" font-size="10.00">Linear</text>
<text xml:space="preserve" text-anchor="start" x="93.99" y="-532" font-family="Arial" font-size="10.00">depth:1</text>
<polygon fill="none" stroke="black" points="132.35,-542 132.35,-564 175.71,-564 175.71,-542 132.35,-542"/>
<text xml:space="preserve" text-anchor="start" x="141.8" y="-549" font-family="Arial" font-size="10.00">input:</text>
<polygon fill="none" stroke="black" points="175.71,-542 175.71,-564 239.63,-564 239.63,-542 175.71,-542"/>
<text xml:space="preserve" text-anchor="start" x="180.71" y="-549" font-family="Arial" font-size="10.00">(1, 2, 2560) </text>
<polygon fill="none" stroke="black" points="132.35,-520 132.35,-542 175.71,-542 175.71,-520 132.35,-520"/>
<text xml:space="preserve" text-anchor="start" x="137.35" y="-527" font-family="Arial" font-size="10.00">output: </text>
<polygon fill="none" stroke="black" points="175.71,-520 175.71,-542 239.63,-542 239.63,-520 175.71,-520"/>
<text xml:space="preserve" text-anchor="start" x="180.71" y="-527" font-family="Arial" font-size="10.00">(1, 2, 2048) </text>
</g>
<!-- 0&#45;&gt;1 -->
<g id="edge1" class="edge">
<title>0&#45;&gt;1</title>
<path fill="none" stroke="black" d="M302.91,-600.16C280.3,-590.84 251.19,-578.83 225.48,-568.23"/>
<polygon fill="black" stroke="black" points="227.06,-565.09 216.48,-564.52 224.39,-571.56 227.06,-565.09"/>
</g>
<!-- 9 -->
<g id="node10" class="node">
<title>9</title>
<polygon fill="#c1ffc1" stroke="none" points="416.63,-564 265.99,-564 265.99,-520 416.63,-520 416.63,-564"/>
<polygon fill="none" stroke="black" points="265.99,-520 265.99,-564 309.35,-564 309.35,-520 265.99,-520"/>
<text xml:space="preserve" text-anchor="start" x="273.77" y="-544" font-family="Arial" font-size="10.00">Linear</text>
<text xml:space="preserve" text-anchor="start" x="270.99" y="-532" font-family="Arial" font-size="10.00">depth:1</text>
<polygon fill="none" stroke="black" points="309.35,-542 309.35,-564 352.71,-564 352.71,-542 309.35,-542"/>
<text xml:space="preserve" text-anchor="start" x="318.8" y="-549" font-family="Arial" font-size="10.00">input:</text>
<polygon fill="none" stroke="black" points="352.71,-542 352.71,-564 416.63,-564 416.63,-542 352.71,-542"/>
<text xml:space="preserve" text-anchor="start" x="357.71" y="-549" font-family="Arial" font-size="10.00">(1, 2, 2560) </text>
<polygon fill="none" stroke="black" points="309.35,-520 309.35,-542 352.71,-542 352.71,-520 309.35,-520"/>
<text xml:space="preserve" text-anchor="start" x="314.35" y="-527" font-family="Arial" font-size="10.00">output: </text>
<polygon fill="none" stroke="black" points="352.71,-520 352.71,-542 416.63,-542 416.63,-520 352.71,-520"/>
<text xml:space="preserve" text-anchor="start" x="360.49" y="-527" font-family="Arial" font-size="10.00">(1, 2, 512) </text>
</g>
<!-- 0&#45;&gt;9 -->
<g id="edge2" class="edge">
<title>0&#45;&gt;9</title>
<path fill="none" stroke="black" d="M341.31,-600.16C341.31,-592.84 341.31,-583.86 341.31,-575.21"/>
<polygon fill="black" stroke="black" points="344.81,-575.31 341.31,-565.31 337.81,-575.31 344.81,-575.31"/>
</g>
<!-- 17 -->
<g id="node18" class="node">
<title>17</title>
<polygon fill="#c1ffc1" stroke="none" points="594.63,-564 443.99,-564 443.99,-520 594.63,-520 594.63,-564"/>
<polygon fill="none" stroke="black" points="443.99,-520 443.99,-564 487.35,-564 487.35,-520 443.99,-520"/>
<text xml:space="preserve" text-anchor="start" x="451.77" y="-544" font-family="Arial" font-size="10.00">Linear</text>
<text xml:space="preserve" text-anchor="start" x="448.99" y="-532" font-family="Arial" font-size="10.00">depth:1</text>
<polygon fill="none" stroke="black" points="487.35,-542 487.35,-564 530.71,-564 530.71,-542 487.35,-542"/>
<text xml:space="preserve" text-anchor="start" x="496.8" y="-549" font-family="Arial" font-size="10.00">input:</text>
<polygon fill="none" stroke="black" points="530.71,-542 530.71,-564 594.63,-564 594.63,-542 530.71,-542"/>
<text xml:space="preserve" text-anchor="start" x="535.71" y="-549" font-family="Arial" font-size="10.00">(1, 2, 2560) </text>
<polygon fill="none" stroke="black" points="487.35,-520 487.35,-542 530.71,-542 530.71,-520 487.35,-520"/>
<text xml:space="preserve" text-anchor="start" x="492.35" y="-527" font-family="Arial" font-size="10.00">output: </text>
<polygon fill="none" stroke="black" points="530.71,-520 530.71,-542 594.63,-542 594.63,-520 530.71,-520"/>
<text xml:space="preserve" text-anchor="start" x="538.49" y="-527" font-family="Arial" font-size="10.00">(1, 2, 512) </text>
</g>
<!-- 0&#45;&gt;17 -->
<g id="edge3" class="edge">
<title>0&#45;&gt;17</title>
<path fill="none" stroke="black" d="M379.94,-600.16C402.67,-590.84 431.95,-578.83 457.8,-568.23"/>
<polygon fill="black" stroke="black" points="458.93,-571.55 466.86,-564.51 456.28,-565.07 458.93,-571.55"/>
</g>
<!-- 2 -->
<g id="node3" class="node">
<title>2</title>
<polygon fill="lightyellow" stroke="none" points="228.46,-484 96.17,-484 96.17,-450 228.46,-450 228.46,-484"/>
<polygon fill="none" stroke="black" points="96.17,-450 96.17,-484 167.32,-484 167.32,-450 96.17,-450"/>
<text xml:space="preserve" text-anchor="start" x="101.17" y="-469" font-family="Arial" font-size="10.00">hidden&#45;tensor</text>
<text xml:space="preserve" text-anchor="start" x="115.06" y="-457" font-family="Arial" font-size="10.00">depth:1</text>
<polygon fill="none" stroke="black" points="167.32,-450 167.32,-484 228.46,-484 228.46,-450 167.32,-450"/>
<text xml:space="preserve" text-anchor="start" x="172.32" y="-463" font-family="Arial" font-size="10.00">(1, 2, 2048)</text>
</g>
<!-- 1&#45;&gt;2 -->
<g id="edge5" class="edge">
<title>1&#45;&gt;2</title>
<path fill="none" stroke="black" d="M163.74,-520.28C163.53,-512.46 163.28,-503.45 163.06,-495.13"/>
<polygon fill="black" stroke="black" points="166.56,-495.08 162.78,-485.18 159.56,-495.27 166.56,-495.08"/>
</g>
<!-- 3 -->
<g id="node4" class="node">
<title>3</title>
<polygon fill="aliceblue" stroke="none" points="224.41,-414 68.21,-414 68.21,-370 224.41,-370 224.41,-414"/>
<polygon fill="none" stroke="black" points="68.21,-370 68.21,-414 111.58,-414 111.58,-370 68.21,-370"/>
<text xml:space="preserve" text-anchor="start" x="79.89" y="-394" font-family="Arial" font-size="10.00">view</text>
<text xml:space="preserve" text-anchor="start" x="73.21" y="-382" font-family="Arial" font-size="10.00">depth:1</text>
<polygon fill="none" stroke="black" points="111.58,-392 111.58,-414 154.94,-414 154.94,-392 111.58,-392"/>
<text xml:space="preserve" text-anchor="start" x="121.02" y="-399" font-family="Arial" font-size="10.00">input:</text>
<polygon fill="none" stroke="black" points="154.94,-392 154.94,-414 224.41,-414 224.41,-392 154.94,-392"/>
<text xml:space="preserve" text-anchor="start" x="162.71" y="-399" font-family="Arial" font-size="10.00">(1, 2, 2048) </text>
<polygon fill="none" stroke="black" points="111.58,-370 111.58,-392 154.94,-392 154.94,-370 111.58,-370"/>
<text xml:space="preserve" text-anchor="start" x="116.58" y="-377" font-family="Arial" font-size="10.00">output: </text>
<polygon fill="none" stroke="black" points="154.94,-370 154.94,-392 224.41,-392 224.41,-370 154.94,-370"/>
<text xml:space="preserve" text-anchor="start" x="159.94" y="-377" font-family="Arial" font-size="10.00">(1, 2, 8, 256) </text>
</g>
<!-- 2&#45;&gt;3 -->
<g id="edge4" class="edge">
<title>2&#45;&gt;3</title>
<path fill="none" stroke="black" d="M158.84,-450.16C157.22,-442.75 155.22,-433.66 153.31,-424.92"/>
<polygon fill="black" stroke="black" points="156.76,-424.3 151.2,-415.28 149.92,-425.8 156.76,-424.3"/>
</g>
<!-- 4 -->
<g id="node5" class="node">
<title>4</title>
<polygon fill="lightyellow" stroke="none" points="188.24,-334 50.39,-334 50.39,-300 188.24,-300 188.24,-334"/>
<polygon fill="none" stroke="black" points="50.39,-300 50.39,-334 121.54,-334 121.54,-300 50.39,-300"/>
<text xml:space="preserve" text-anchor="start" x="55.39" y="-319" font-family="Arial" font-size="10.00">hidden&#45;tensor</text>
<text xml:space="preserve" text-anchor="start" x="69.28" y="-307" font-family="Arial" font-size="10.00">depth:1</text>
<polygon fill="none" stroke="black" points="121.54,-300 121.54,-334 188.24,-334 188.24,-300 121.54,-300"/>
<text xml:space="preserve" text-anchor="start" x="126.54" y="-313" font-family="Arial" font-size="10.00">(1, 2, 8, 256)</text>
</g>
<!-- 3&#45;&gt;4 -->
<g id="edge7" class="edge">
<title>3&#45;&gt;4</title>
<path fill="none" stroke="black" d="M138.65,-370.28C135.66,-362.19 132.19,-352.82 129.03,-344.26"/>
<polygon fill="black" stroke="black" points="132.38,-343.25 125.63,-335.09 125.82,-345.68 132.38,-343.25"/>
</g>
<!-- 5 -->
<g id="node6" class="node">
<title>5</title>
<polygon fill="#c1ffc1" stroke="none" points="210.62,-264 0,-264 0,-220 210.62,-220 210.62,-264"/>
<polygon fill="none" stroke="black" points="0,-220 0,-264 97.79,-264 97.79,-220 0,-220"/>
<text xml:space="preserve" text-anchor="start" x="5" y="-244" font-family="Arial" font-size="10.00">Gemma4RMSNorm</text>
<text xml:space="preserve" text-anchor="start" x="32.21" y="-232" font-family="Arial" font-size="10.00">depth:1</text>
<polygon fill="none" stroke="black" points="97.79,-242 97.79,-264 141.15,-264 141.15,-242 97.79,-242"/>
<text xml:space="preserve" text-anchor="start" x="107.24" y="-249" font-family="Arial" font-size="10.00">input:</text>
<polygon fill="none" stroke="black" points="141.15,-242 141.15,-264 210.62,-264 210.62,-242 141.15,-242"/>
<text xml:space="preserve" text-anchor="start" x="146.15" y="-249" font-family="Arial" font-size="10.00">(1, 2, 8, 256) </text>
<polygon fill="none" stroke="black" points="97.79,-220 97.79,-242 141.15,-242 141.15,-220 97.79,-220"/>
<text xml:space="preserve" text-anchor="start" x="102.79" y="-227" font-family="Arial" font-size="10.00">output: </text>
<polygon fill="none" stroke="black" points="141.15,-220 141.15,-242 210.62,-242 210.62,-220 141.15,-220"/>
<text xml:space="preserve" text-anchor="start" x="146.15" y="-227" font-family="Arial" font-size="10.00">(1, 2, 8, 256) </text>
</g>
<!-- 4&#45;&gt;5 -->
<g id="edge6" class="edge">
<title>4&#45;&gt;5</title>
<path fill="none" stroke="black" d="M116.27,-300.16C114.85,-292.75 113.11,-283.66 111.43,-274.92"/>
<polygon fill="black" stroke="black" points="114.91,-274.45 109.59,-265.29 108.03,-275.77 114.91,-274.45"/>
</g>
<!-- 6 -->
<g id="node7" class="node">
<title>6</title>
<polygon fill="lightyellow" stroke="none" points="174.24,-184 36.39,-184 36.39,-150 174.24,-150 174.24,-184"/>
<polygon fill="none" stroke="black" points="36.39,-150 36.39,-184 107.54,-184 107.54,-150 36.39,-150"/>
<text xml:space="preserve" text-anchor="start" x="41.39" y="-169" font-family="Arial" font-size="10.00">hidden&#45;tensor</text>
<text xml:space="preserve" text-anchor="start" x="55.28" y="-157" font-family="Arial" font-size="10.00">depth:1</text>
<polygon fill="none" stroke="black" points="107.54,-150 107.54,-184 174.24,-184 174.24,-150 107.54,-150"/>
<text xml:space="preserve" text-anchor="start" x="112.54" y="-163" font-family="Arial" font-size="10.00">(1, 2, 8, 256)</text>
</g>
<!-- 5&#45;&gt;6 -->
<g id="edge9" class="edge">
<title>5&#45;&gt;6</title>
<path fill="none" stroke="black" d="M105.31,-220.28C105.31,-212.46 105.31,-203.45 105.31,-195.13"/>
<polygon fill="black" stroke="black" points="108.81,-195.18 105.31,-185.18 101.81,-195.18 108.81,-195.18"/>
</g>
<!-- 7 -->
<g id="node8" class="node">
<title>7</title>
<polygon fill="aliceblue" stroke="none" points="188.69,-114 21.94,-114 21.94,-70 188.69,-70 188.69,-114"/>
<polygon fill="none" stroke="black" points="21.94,-70 21.94,-114 75.85,-114 75.85,-70 21.94,-70"/>
<text xml:space="preserve" text-anchor="start" x="26.94" y="-94" font-family="Arial" font-size="10.00">transpose</text>
<text xml:space="preserve" text-anchor="start" x="32.21" y="-82" font-family="Arial" font-size="10.00">depth:1</text>
<polygon fill="none" stroke="black" points="75.85,-92 75.85,-114 119.21,-114 119.21,-92 75.85,-92"/>
<text xml:space="preserve" text-anchor="start" x="85.3" y="-99" font-family="Arial" font-size="10.00">input:</text>
<polygon fill="none" stroke="black" points="119.21,-92 119.21,-114 188.69,-114 188.69,-92 119.21,-92"/>
<text xml:space="preserve" text-anchor="start" x="124.21" y="-99" font-family="Arial" font-size="10.00">(1, 2, 8, 256) </text>
<polygon fill="none" stroke="black" points="75.85,-70 75.85,-92 119.21,-92 119.21,-70 75.85,-70"/>
<text xml:space="preserve" text-anchor="start" x="80.85" y="-77" font-family="Arial" font-size="10.00">output: </text>
<polygon fill="none" stroke="black" points="119.21,-70 119.21,-92 188.69,-92 188.69,-70 119.21,-70"/>
<text xml:space="preserve" text-anchor="start" x="124.21" y="-77" font-family="Arial" font-size="10.00">(1, 8, 2, 256) </text>
</g>
<!-- 6&#45;&gt;7 -->
<g id="edge8" class="edge">
<title>6&#45;&gt;7</title>
<path fill="none" stroke="black" d="M105.31,-150.16C105.31,-142.84 105.31,-133.86 105.31,-125.21"/>
<polygon fill="black" stroke="black" points="108.81,-125.31 105.31,-115.31 101.81,-125.31 108.81,-125.31"/>
</g>
<!-- 8 -->
<g id="node9" class="node">
<title>8</title>
<polygon fill="lightyellow" stroke="none" points="173.12,-34 37.5,-34 37.5,0 173.12,0 173.12,-34"/>
<polygon fill="none" stroke="black" points="37.5,0 37.5,-34 106.43,-34 106.43,0 37.5,0"/>
<text xml:space="preserve" text-anchor="start" x="42.5" y="-19" font-family="Arial" font-size="10.00">output&#45;tensor</text>
<text xml:space="preserve" text-anchor="start" x="55.28" y="-7" font-family="Arial" font-size="10.00">depth:0</text>
<polygon fill="none" stroke="black" points="106.43,0 106.43,-34 173.12,-34 173.12,0 106.43,0"/>
<text xml:space="preserve" text-anchor="start" x="111.43" y="-13" font-family="Arial" font-size="10.00">(1, 8, 2, 256)</text>
</g>
<!-- 7&#45;&gt;8 -->
<g id="edge10" class="edge">
<title>7&#45;&gt;8</title>
<path fill="none" stroke="black" d="M105.31,-70.28C105.31,-62.46 105.31,-53.45 105.31,-45.13"/>
<polygon fill="black" stroke="black" points="108.81,-45.18 105.31,-35.18 101.81,-45.18 108.81,-45.18"/>
</g>
<!-- 10 -->
<g id="node11" class="node">
<title>10</title>
<polygon fill="lightyellow" stroke="none" points="404.68,-484 277.95,-484 277.95,-450 404.68,-450 404.68,-484"/>
<polygon fill="none" stroke="black" points="277.95,-450 277.95,-484 349.1,-484 349.1,-450 277.95,-450"/>
<text xml:space="preserve" text-anchor="start" x="282.95" y="-469" font-family="Arial" font-size="10.00">hidden&#45;tensor</text>
<text xml:space="preserve" text-anchor="start" x="296.84" y="-457" font-family="Arial" font-size="10.00">depth:1</text>
<polygon fill="none" stroke="black" points="349.1,-450 349.1,-484 404.68,-484 404.68,-450 349.1,-450"/>
<text xml:space="preserve" text-anchor="start" x="354.1" y="-463" font-family="Arial" font-size="10.00">(1, 2, 512)</text>
</g>
<!-- 9&#45;&gt;10 -->
<g id="edge12" class="edge">
<title>9&#45;&gt;10</title>
<path fill="none" stroke="black" d="M341.31,-520.28C341.31,-512.46 341.31,-503.45 341.31,-495.13"/>
<polygon fill="black" stroke="black" points="344.81,-495.18 341.31,-485.18 337.81,-495.18 344.81,-495.18"/>
</g>
<!-- 11 -->
<g id="node12" class="node">
<title>11</title>
<polygon fill="aliceblue" stroke="none" points="419.41,-414 263.21,-414 263.21,-370 419.41,-370 419.41,-414"/>
<polygon fill="none" stroke="black" points="263.21,-370 263.21,-414 306.58,-414 306.58,-370 263.21,-370"/>
<text xml:space="preserve" text-anchor="start" x="274.89" y="-394" font-family="Arial" font-size="10.00">view</text>
<text xml:space="preserve" text-anchor="start" x="268.21" y="-382" font-family="Arial" font-size="10.00">depth:1</text>
<polygon fill="none" stroke="black" points="306.58,-392 306.58,-414 349.94,-414 349.94,-392 306.58,-392"/>
<text xml:space="preserve" text-anchor="start" x="316.02" y="-399" font-family="Arial" font-size="10.00">input:</text>
<polygon fill="none" stroke="black" points="349.94,-392 349.94,-414 419.41,-414 419.41,-392 349.94,-392"/>
<text xml:space="preserve" text-anchor="start" x="360.49" y="-399" font-family="Arial" font-size="10.00">(1, 2, 512) </text>
<polygon fill="none" stroke="black" points="306.58,-370 306.58,-392 349.94,-392 349.94,-370 306.58,-370"/>
<text xml:space="preserve" text-anchor="start" x="311.58" y="-377" font-family="Arial" font-size="10.00">output: </text>
<polygon fill="none" stroke="black" points="349.94,-370 349.94,-392 419.41,-392 419.41,-370 349.94,-370"/>
<text xml:space="preserve" text-anchor="start" x="354.94" y="-377" font-family="Arial" font-size="10.00">(1, 2, 2, 256) </text>
</g>
<!-- 10&#45;&gt;11 -->
<g id="edge11" class="edge">
<title>10&#45;&gt;11</title>
<path fill="none" stroke="black" d="M341.31,-450.16C341.31,-442.84 341.31,-433.86 341.31,-425.21"/>
<polygon fill="black" stroke="black" points="344.81,-425.31 341.31,-415.31 337.81,-425.31 344.81,-425.31"/>
</g>
<!-- 12 -->
<g id="node13" class="node">
<title>12</title>
<polygon fill="lightyellow" stroke="none" points="410.24,-334 272.39,-334 272.39,-300 410.24,-300 410.24,-334"/>
<polygon fill="none" stroke="black" points="272.39,-300 272.39,-334 343.54,-334 343.54,-300 272.39,-300"/>
<text xml:space="preserve" text-anchor="start" x="277.39" y="-319" font-family="Arial" font-size="10.00">hidden&#45;tensor</text>
<text xml:space="preserve" text-anchor="start" x="291.28" y="-307" font-family="Arial" font-size="10.00">depth:1</text>
<polygon fill="none" stroke="black" points="343.54,-300 343.54,-334 410.24,-334 410.24,-300 343.54,-300"/>
<text xml:space="preserve" text-anchor="start" x="348.54" y="-313" font-family="Arial" font-size="10.00">(1, 2, 2, 256)</text>
</g>
<!-- 11&#45;&gt;12 -->
<g id="edge14" class="edge">
<title>11&#45;&gt;12</title>
<path fill="none" stroke="black" d="M341.31,-370.28C341.31,-362.46 341.31,-353.45 341.31,-345.13"/>
<polygon fill="black" stroke="black" points="344.81,-345.18 341.31,-335.18 337.81,-345.18 344.81,-345.18"/>
</g>
<!-- 13 -->
<g id="node14" class="node">
<title>13</title>
<polygon fill="#c1ffc1" stroke="none" points="446.62,-264 236,-264 236,-220 446.62,-220 446.62,-264"/>
<polygon fill="none" stroke="black" points="236,-220 236,-264 333.79,-264 333.79,-220 236,-220"/>
<text xml:space="preserve" text-anchor="start" x="241" y="-244" font-family="Arial" font-size="10.00">Gemma4RMSNorm</text>
<text xml:space="preserve" text-anchor="start" x="268.21" y="-232" font-family="Arial" font-size="10.00">depth:1</text>
<polygon fill="none" stroke="black" points="333.79,-242 333.79,-264 377.15,-264 377.15,-242 333.79,-242"/>
<text xml:space="preserve" text-anchor="start" x="343.24" y="-249" font-family="Arial" font-size="10.00">input:</text>
<polygon fill="none" stroke="black" points="377.15,-242 377.15,-264 446.62,-264 446.62,-242 377.15,-242"/>
<text xml:space="preserve" text-anchor="start" x="382.15" y="-249" font-family="Arial" font-size="10.00">(1, 2, 2, 256) </text>
<polygon fill="none" stroke="black" points="333.79,-220 333.79,-242 377.15,-242 377.15,-220 333.79,-220"/>
<text xml:space="preserve" text-anchor="start" x="338.79" y="-227" font-family="Arial" font-size="10.00">output: </text>
<polygon fill="none" stroke="black" points="377.15,-220 377.15,-242 446.62,-242 446.62,-220 377.15,-220"/>
<text xml:space="preserve" text-anchor="start" x="382.15" y="-227" font-family="Arial" font-size="10.00">(1, 2, 2, 256) </text>
</g>
<!-- 12&#45;&gt;13 -->
<g id="edge13" class="edge">
<title>12&#45;&gt;13</title>
<path fill="none" stroke="black" d="M341.31,-300.16C341.31,-292.84 341.31,-283.86 341.31,-275.21"/>
<polygon fill="black" stroke="black" points="344.81,-275.31 341.31,-265.31 337.81,-275.31 344.81,-275.31"/>
</g>
<!-- 14 -->
<g id="node15" class="node">
<title>14</title>
<polygon fill="lightyellow" stroke="none" points="410.24,-184 272.39,-184 272.39,-150 410.24,-150 410.24,-184"/>
<polygon fill="none" stroke="black" points="272.39,-150 272.39,-184 343.54,-184 343.54,-150 272.39,-150"/>
<text xml:space="preserve" text-anchor="start" x="277.39" y="-169" font-family="Arial" font-size="10.00">hidden&#45;tensor</text>
<text xml:space="preserve" text-anchor="start" x="291.28" y="-157" font-family="Arial" font-size="10.00">depth:1</text>
<polygon fill="none" stroke="black" points="343.54,-150 343.54,-184 410.24,-184 410.24,-150 343.54,-150"/>
<text xml:space="preserve" text-anchor="start" x="348.54" y="-163" font-family="Arial" font-size="10.00">(1, 2, 2, 256)</text>
</g>
<!-- 13&#45;&gt;14 -->
<g id="edge16" class="edge">
<title>13&#45;&gt;14</title>
<path fill="none" stroke="black" d="M341.31,-220.28C341.31,-212.46 341.31,-203.45 341.31,-195.13"/>
<polygon fill="black" stroke="black" points="344.81,-195.18 341.31,-185.18 337.81,-195.18 344.81,-195.18"/>
</g>
<!-- 15 -->
<g id="node16" class="node">
<title>15</title>
<polygon fill="aliceblue" stroke="none" points="424.69,-114 257.94,-114 257.94,-70 424.69,-70 424.69,-114"/>
<polygon fill="none" stroke="black" points="257.94,-70 257.94,-114 311.85,-114 311.85,-70 257.94,-70"/>
<text xml:space="preserve" text-anchor="start" x="262.94" y="-94" font-family="Arial" font-size="10.00">transpose</text>
<text xml:space="preserve" text-anchor="start" x="268.21" y="-82" font-family="Arial" font-size="10.00">depth:1</text>
<polygon fill="none" stroke="black" points="311.85,-92 311.85,-114 355.21,-114 355.21,-92 311.85,-92"/>
<text xml:space="preserve" text-anchor="start" x="321.3" y="-99" font-family="Arial" font-size="10.00">input:</text>
<polygon fill="none" stroke="black" points="355.21,-92 355.21,-114 424.69,-114 424.69,-92 355.21,-92"/>
<text xml:space="preserve" text-anchor="start" x="360.21" y="-99" font-family="Arial" font-size="10.00">(1, 2, 2, 256) </text>
<polygon fill="none" stroke="black" points="311.85,-70 311.85,-92 355.21,-92 355.21,-70 311.85,-70"/>
<text xml:space="preserve" text-anchor="start" x="316.85" y="-77" font-family="Arial" font-size="10.00">output: </text>
<polygon fill="none" stroke="black" points="355.21,-70 355.21,-92 424.69,-92 424.69,-70 355.21,-70"/>
<text xml:space="preserve" text-anchor="start" x="360.21" y="-77" font-family="Arial" font-size="10.00">(1, 2, 2, 256) </text>
</g>
<!-- 14&#45;&gt;15 -->
<g id="edge15" class="edge">
<title>14&#45;&gt;15</title>
<path fill="none" stroke="black" d="M341.31,-150.16C341.31,-142.84 341.31,-133.86 341.31,-125.21"/>
<polygon fill="black" stroke="black" points="344.81,-125.31 341.31,-115.31 337.81,-125.31 344.81,-125.31"/>
</g>
<!-- 16 -->
<g id="node17" class="node">
<title>16</title>
<polygon fill="lightyellow" stroke="none" points="409.12,-34 273.5,-34 273.5,0 409.12,0 409.12,-34"/>
<polygon fill="none" stroke="black" points="273.5,0 273.5,-34 342.43,-34 342.43,0 273.5,0"/>
<text xml:space="preserve" text-anchor="start" x="278.5" y="-19" font-family="Arial" font-size="10.00">output&#45;tensor</text>
<text xml:space="preserve" text-anchor="start" x="291.28" y="-7" font-family="Arial" font-size="10.00">depth:0</text>
<polygon fill="none" stroke="black" points="342.43,0 342.43,-34 409.12,-34 409.12,0 342.43,0"/>
<text xml:space="preserve" text-anchor="start" x="347.43" y="-13" font-family="Arial" font-size="10.00">(1, 2, 2, 256)</text>
</g>
<!-- 15&#45;&gt;16 -->
<g id="edge17" class="edge">
<title>15&#45;&gt;16</title>
<path fill="none" stroke="black" d="M341.31,-70.28C341.31,-62.46 341.31,-53.45 341.31,-45.13"/>
<polygon fill="black" stroke="black" points="344.81,-45.18 341.31,-35.18 337.81,-45.18 344.81,-45.18"/>
</g>
<!-- 18 -->
<g id="node19" class="node">
<title>18</title>
<polygon fill="lightyellow" stroke="none" points="597.68,-484 470.95,-484 470.95,-450 597.68,-450 597.68,-484"/>
<polygon fill="none" stroke="black" points="470.95,-450 470.95,-484 542.1,-484 542.1,-450 470.95,-450"/>
<text xml:space="preserve" text-anchor="start" x="475.95" y="-469" font-family="Arial" font-size="10.00">hidden&#45;tensor</text>
<text xml:space="preserve" text-anchor="start" x="489.84" y="-457" font-family="Arial" font-size="10.00">depth:1</text>
<polygon fill="none" stroke="black" points="542.1,-450 542.1,-484 597.68,-484 597.68,-450 542.1,-450"/>
<text xml:space="preserve" text-anchor="start" x="547.1" y="-463" font-family="Arial" font-size="10.00">(1, 2, 512)</text>
</g>
<!-- 17&#45;&gt;18 -->
<g id="edge19" class="edge">
<title>17&#45;&gt;18</title>
<path fill="none" stroke="black" d="M523.57,-520.28C525.2,-512.37 527.07,-503.24 528.8,-494.84"/>
<polygon fill="black" stroke="black" points="532.2,-495.65 530.79,-485.15 525.35,-494.24 532.2,-495.65"/>
</g>
<!-- 19 -->
<g id="node20" class="node">
<title>19</title>
<polygon fill="aliceblue" stroke="none" points="627.41,-414 471.21,-414 471.21,-370 627.41,-370 627.41,-414"/>
<polygon fill="none" stroke="black" points="471.21,-370 471.21,-414 514.58,-414 514.58,-370 471.21,-370"/>
<text xml:space="preserve" text-anchor="start" x="482.89" y="-394" font-family="Arial" font-size="10.00">view</text>
<text xml:space="preserve" text-anchor="start" x="476.21" y="-382" font-family="Arial" font-size="10.00">depth:1</text>
<polygon fill="none" stroke="black" points="514.58,-392 514.58,-414 557.94,-414 557.94,-392 514.58,-392"/>
<text xml:space="preserve" text-anchor="start" x="524.02" y="-399" font-family="Arial" font-size="10.00">input:</text>
<polygon fill="none" stroke="black" points="557.94,-392 557.94,-414 627.41,-414 627.41,-392 557.94,-392"/>
<text xml:space="preserve" text-anchor="start" x="568.49" y="-399" font-family="Arial" font-size="10.00">(1, 2, 512) </text>
<polygon fill="none" stroke="black" points="514.58,-370 514.58,-392 557.94,-392 557.94,-370 514.58,-370"/>
<text xml:space="preserve" text-anchor="start" x="519.58" y="-377" font-family="Arial" font-size="10.00">output: </text>
<polygon fill="none" stroke="black" points="557.94,-370 557.94,-392 627.41,-392 627.41,-370 557.94,-370"/>
<text xml:space="preserve" text-anchor="start" x="562.94" y="-377" font-family="Arial" font-size="10.00">(1, 2, 2, 256) </text>
</g>
<!-- 18&#45;&gt;19 -->
<g id="edge18" class="edge">
<title>18&#45;&gt;19</title>
<path fill="none" stroke="black" d="M537.57,-450.16C539.09,-442.75 540.96,-433.66 542.75,-424.92"/>
<polygon fill="black" stroke="black" points="546.15,-425.78 544.73,-415.28 539.29,-424.37 546.15,-425.78"/>
</g>
<!-- 20 -->
<g id="node21" class="node">
<title>20</title>
<polygon fill="lightyellow" stroke="none" points="632.24,-334 494.39,-334 494.39,-300 632.24,-300 632.24,-334"/>
<polygon fill="none" stroke="black" points="494.39,-300 494.39,-334 565.54,-334 565.54,-300 494.39,-300"/>
<text xml:space="preserve" text-anchor="start" x="499.39" y="-319" font-family="Arial" font-size="10.00">hidden&#45;tensor</text>
<text xml:space="preserve" text-anchor="start" x="513.28" y="-307" font-family="Arial" font-size="10.00">depth:1</text>
<polygon fill="none" stroke="black" points="565.54,-300 565.54,-334 632.24,-334 632.24,-300 565.54,-300"/>
<text xml:space="preserve" text-anchor="start" x="570.54" y="-313" font-family="Arial" font-size="10.00">(1, 2, 2, 256)</text>
</g>
<!-- 19&#45;&gt;20 -->
<g id="edge21" class="edge">
<title>19&#45;&gt;20</title>
<path fill="none" stroke="black" d="M553.29,-370.28C554.8,-362.37 556.55,-353.24 558.16,-344.84"/>
<polygon fill="black" stroke="black" points="561.58,-345.63 560.02,-335.15 554.7,-344.31 561.58,-345.63"/>
</g>
<!-- 21 -->
<g id="node22" class="node">
<title>21</title>
<polygon fill="#c1ffc1" stroke="none" points="682.62,-264 472,-264 472,-220 682.62,-220 682.62,-264"/>
<polygon fill="none" stroke="black" points="472,-220 472,-264 569.79,-264 569.79,-220 472,-220"/>
<text xml:space="preserve" text-anchor="start" x="477" y="-244" font-family="Arial" font-size="10.00">Gemma4RMSNorm</text>
<text xml:space="preserve" text-anchor="start" x="504.21" y="-232" font-family="Arial" font-size="10.00">depth:1</text>
<polygon fill="none" stroke="black" points="569.79,-242 569.79,-264 613.15,-264 613.15,-242 569.79,-242"/>
<text xml:space="preserve" text-anchor="start" x="579.24" y="-249" font-family="Arial" font-size="10.00">input:</text>
<polygon fill="none" stroke="black" points="613.15,-242 613.15,-264 682.62,-264 682.62,-242 613.15,-242"/>
<text xml:space="preserve" text-anchor="start" x="618.15" y="-249" font-family="Arial" font-size="10.00">(1, 2, 2, 256) </text>
<polygon fill="none" stroke="black" points="569.79,-220 569.79,-242 613.15,-242 613.15,-220 569.79,-220"/>
<text xml:space="preserve" text-anchor="start" x="574.79" y="-227" font-family="Arial" font-size="10.00">output: </text>
<polygon fill="none" stroke="black" points="613.15,-220 613.15,-242 682.62,-242 682.62,-220 613.15,-220"/>
<text xml:space="preserve" text-anchor="start" x="618.15" y="-227" font-family="Arial" font-size="10.00">(1, 2, 2, 256) </text>
</g>
<!-- 20&#45;&gt;21 -->
<g id="edge20" class="edge">
<title>20&#45;&gt;21</title>
<path fill="none" stroke="black" d="M566.35,-300.16C567.77,-292.75 569.52,-283.66 571.19,-274.92"/>
<polygon fill="black" stroke="black" points="574.59,-275.77 573.04,-265.29 567.72,-274.45 574.59,-275.77"/>
</g>
<!-- 22 -->
<g id="node23" class="node">
<title>22</title>
<polygon fill="lightyellow" stroke="none" points="646.24,-184 508.39,-184 508.39,-150 646.24,-150 646.24,-184"/>
<polygon fill="none" stroke="black" points="508.39,-150 508.39,-184 579.54,-184 579.54,-150 508.39,-150"/>
<text xml:space="preserve" text-anchor="start" x="513.39" y="-169" font-family="Arial" font-size="10.00">hidden&#45;tensor</text>
<text xml:space="preserve" text-anchor="start" x="527.28" y="-157" font-family="Arial" font-size="10.00">depth:1</text>
<polygon fill="none" stroke="black" points="579.54,-150 579.54,-184 646.24,-184 646.24,-150 579.54,-150"/>
<text xml:space="preserve" text-anchor="start" x="584.54" y="-163" font-family="Arial" font-size="10.00">(1, 2, 2, 256)</text>
</g>
<!-- 21&#45;&gt;22 -->
<g id="edge23" class="edge">
<title>21&#45;&gt;22</title>
<path fill="none" stroke="black" d="M577.31,-220.28C577.31,-212.46 577.31,-203.45 577.31,-195.13"/>
<polygon fill="black" stroke="black" points="580.81,-195.18 577.31,-185.18 573.81,-195.18 580.81,-195.18"/>
</g>
<!-- 23 -->
<g id="node24" class="node">
<title>23</title>
<polygon fill="aliceblue" stroke="none" points="660.69,-114 493.94,-114 493.94,-70 660.69,-70 660.69,-114"/>
<polygon fill="none" stroke="black" points="493.94,-70 493.94,-114 547.85,-114 547.85,-70 493.94,-70"/>
<text xml:space="preserve" text-anchor="start" x="498.94" y="-94" font-family="Arial" font-size="10.00">transpose</text>
<text xml:space="preserve" text-anchor="start" x="504.21" y="-82" font-family="Arial" font-size="10.00">depth:1</text>
<polygon fill="none" stroke="black" points="547.85,-92 547.85,-114 591.21,-114 591.21,-92 547.85,-92"/>
<text xml:space="preserve" text-anchor="start" x="557.3" y="-99" font-family="Arial" font-size="10.00">input:</text>
<polygon fill="none" stroke="black" points="591.21,-92 591.21,-114 660.69,-114 660.69,-92 591.21,-92"/>
<text xml:space="preserve" text-anchor="start" x="596.21" y="-99" font-family="Arial" font-size="10.00">(1, 2, 2, 256) </text>
<polygon fill="none" stroke="black" points="547.85,-70 547.85,-92 591.21,-92 591.21,-70 547.85,-70"/>
<text xml:space="preserve" text-anchor="start" x="552.85" y="-77" font-family="Arial" font-size="10.00">output: </text>
<polygon fill="none" stroke="black" points="591.21,-70 591.21,-92 660.69,-92 660.69,-70 591.21,-70"/>
<text xml:space="preserve" text-anchor="start" x="596.21" y="-77" font-family="Arial" font-size="10.00">(1, 2, 2, 256) </text>
</g>
<!-- 22&#45;&gt;23 -->
<g id="edge22" class="edge">
<title>22&#45;&gt;23</title>
<path fill="none" stroke="black" d="M577.31,-150.16C577.31,-142.84 577.31,-133.86 577.31,-125.21"/>
<polygon fill="black" stroke="black" points="580.81,-125.31 577.31,-115.31 573.81,-125.31 580.81,-125.31"/>
</g>
<!-- 24 -->
<g id="node25" class="node">
<title>24</title>
<polygon fill="lightyellow" stroke="none" points="645.12,-34 509.5,-34 509.5,0 645.12,0 645.12,-34"/>
<polygon fill="none" stroke="black" points="509.5,0 509.5,-34 578.43,-34 578.43,0 509.5,0"/>
<text xml:space="preserve" text-anchor="start" x="514.5" y="-19" font-family="Arial" font-size="10.00">output&#45;tensor</text>
<text xml:space="preserve" text-anchor="start" x="527.28" y="-7" font-family="Arial" font-size="10.00">depth:0</text>
<polygon fill="none" stroke="black" points="578.43,0 578.43,-34 645.12,-34 645.12,0 578.43,0"/>
<text xml:space="preserve" text-anchor="start" x="583.43" y="-13" font-family="Arial" font-size="10.00">(1, 2, 2, 256)</text>
</g>
<!-- 23&#45;&gt;24 -->
<g id="edge24" class="edge">
<title>23&#45;&gt;24</title>
<path fill="none" stroke="black" d="M577.31,-70.28C577.31,-62.46 577.31,-53.45 577.31,-45.13"/>
<polygon fill="black" stroke="black" points="580.81,-45.18 577.31,-35.18 573.81,-45.18 580.81,-45.18"/>
</g>
</g>
</svg>
