<?xml version="1.0" encoding="UTF-8" standalone="no"?>
<!DOCTYPE svg PUBLIC "-//W3C//DTD SVG 1.1//EN"
 "http://www.w3.org/Graphics/SVG/1.1/DTD/svg11.dtd">
<!-- Generated by graphviz version 16.0.0 (20260814.1018)
 -->
<!-- Title: mlp Pages: 1 -->
<svg width="410pt" height="699pt"
 viewBox="0.00 0.00 410.00 699.00" xmlns="http://www.w3.org/2000/svg" xmlns:xlink="http://www.w3.org/1999/xlink">
<g id="graph0" class="graph" transform="scale(1 1) rotate(0) translate(32.4 666.4)">
<title>mlp</title>
<polygon fill="white" stroke="none" points="-32.4,32.4 -32.4,-666.4 377.94,-666.4 377.94,32.4 -32.4,32.4"/>
<!-- 0 -->
<g id="node1" class="node">
<title>0</title>
<polygon fill="lightyellow" stroke="none" points="238.41,-634 114.46,-634 114.46,-600 238.41,-600 238.41,-634"/>
<polygon fill="none" stroke="black" points="114.46,-600 114.46,-634 177.27,-634 177.27,-600 114.46,-600"/>
<text xml:space="preserve" text-anchor="start" x="119.46" y="-619" font-family="Arial" font-size="10.00">input&#45;tensor</text>
<text xml:space="preserve" text-anchor="start" x="129.18" y="-607" font-family="Arial" font-size="10.00">depth:0</text>
<polygon fill="none" stroke="black" points="177.27,-600 177.27,-634 238.41,-634 238.41,-600 177.27,-600"/>
<text xml:space="preserve" text-anchor="start" x="182.27" y="-613" font-family="Arial" font-size="10.00">(1, 2, 2560)</text>
</g>
<!-- 1 -->
<g id="node2" class="node">
<title>1</title>
<polygon fill="#c1ffc1" stroke="none" points="164.54,-564 8.33,-564 8.33,-520 164.54,-520 164.54,-564"/>
<polygon fill="none" stroke="black" points="8.33,-520 8.33,-564 51.69,-564 51.69,-520 8.33,-520"/>
<text xml:space="preserve" text-anchor="start" x="16.11" y="-544" font-family="Arial" font-size="10.00">Linear</text>
<text xml:space="preserve" text-anchor="start" x="13.33" y="-532" font-family="Arial" font-size="10.00">depth:1</text>
<polygon fill="none" stroke="black" points="51.69,-542 51.69,-564 95.05,-564 95.05,-542 51.69,-542"/>
<text xml:space="preserve" text-anchor="start" x="61.14" y="-549" font-family="Arial" font-size="10.00">input:</text>
<polygon fill="none" stroke="black" points="95.05,-542 95.05,-564 164.54,-564 164.54,-542 95.05,-542"/>
<text xml:space="preserve" text-anchor="start" x="102.83" y="-549" font-family="Arial" font-size="10.00">(1, 2, 2560) </text>
<polygon fill="none" stroke="black" points="51.69,-520 51.69,-542 95.05,-542 95.05,-520 51.69,-520"/>
<text xml:space="preserve" text-anchor="start" x="56.69" y="-527" font-family="Arial" font-size="10.00">output: </text>
<polygon fill="none" stroke="black" points="95.05,-520 95.05,-542 164.54,-542 164.54,-520 95.05,-520"/>
<text xml:space="preserve" text-anchor="start" x="100.05" y="-527" font-family="Arial" font-size="10.00">(1, 2, 10240) </text>
</g>
<!-- 0&#45;&gt;1 -->
<g id="edge1" class="edge">
<title>0&#45;&gt;1</title>
<path fill="none" stroke="black" d="M156.9,-600.16C146.34,-591.59 132.98,-580.75 120.74,-570.82"/>
<polygon fill="black" stroke="black" points="123.23,-568.34 113.25,-564.75 118.82,-573.77 123.23,-568.34"/>
</g>
<!-- 5 -->
<g id="node6" class="node">
<title>5</title>
<polygon fill="#c1ffc1" stroke="none" points="345.54,-564 189.33,-564 189.33,-520 345.54,-520 345.54,-564"/>
<polygon fill="none" stroke="black" points="189.33,-520 189.33,-564 232.69,-564 232.69,-520 189.33,-520"/>
<text xml:space="preserve" text-anchor="start" x="197.11" y="-544" font-family="Arial" font-size="10.00">Linear</text>
<text xml:space="preserve" text-anchor="start" x="194.33" y="-532" font-family="Arial" font-size="10.00">depth:1</text>
<polygon fill="none" stroke="black" points="232.69,-542 232.69,-564 276.05,-564 276.05,-542 232.69,-542"/>
<text xml:space="preserve" text-anchor="start" x="242.14" y="-549" font-family="Arial" font-size="10.00">input:</text>
<polygon fill="none" stroke="black" points="276.05,-542 276.05,-564 345.54,-564 345.54,-542 276.05,-542"/>
<text xml:space="preserve" text-anchor="start" x="283.83" y="-549" font-family="Arial" font-size="10.00">(1, 2, 2560) </text>
<polygon fill="none" stroke="black" points="232.69,-520 232.69,-542 276.05,-542 276.05,-520 232.69,-520"/>
<text xml:space="preserve" text-anchor="start" x="237.69" y="-527" font-family="Arial" font-size="10.00">output: </text>
<polygon fill="none" stroke="black" points="276.05,-520 276.05,-542 345.54,-542 345.54,-520 276.05,-520"/>
<text xml:space="preserve" text-anchor="start" x="281.05" y="-527" font-family="Arial" font-size="10.00">(1, 2, 10240) </text>
</g>
<!-- 0&#45;&gt;5 -->
<g id="edge2" class="edge">
<title>0&#45;&gt;5</title>
<path fill="none" stroke="black" d="M196.18,-600.16C206.86,-591.59 220.37,-580.75 232.75,-570.82"/>
<polygon fill="black" stroke="black" points="234.71,-573.74 240.32,-564.75 230.33,-568.28 234.71,-573.74"/>
</g>
<!-- 2 -->
<g id="node3" class="node">
<title>2</title>
<polygon fill="lightyellow" stroke="none" points="155.36,-484 17.5,-484 17.5,-450 155.36,-450 155.36,-484"/>
<polygon fill="none" stroke="black" points="17.5,-450 17.5,-484 88.66,-484 88.66,-450 17.5,-450"/>
<text xml:space="preserve" text-anchor="start" x="22.5" y="-469" font-family="Arial" font-size="10.00">hidden&#45;tensor</text>
<text xml:space="preserve" text-anchor="start" x="36.4" y="-457" font-family="Arial" font-size="10.00">depth:1</text>
<polygon fill="none" stroke="black" points="88.66,-450 88.66,-484 155.36,-484 155.36,-450 88.66,-450"/>
<text xml:space="preserve" text-anchor="start" x="93.66" y="-463" font-family="Arial" font-size="10.00">(1, 2, 10240)</text>
</g>
<!-- 1&#45;&gt;2 -->
<g id="edge4" class="edge">
<title>1&#45;&gt;2</title>
<path fill="none" stroke="black" d="M86.43,-520.28C86.43,-512.46 86.43,-503.45 86.43,-495.13"/>
<polygon fill="black" stroke="black" points="89.93,-495.18 86.43,-485.18 82.93,-495.18 89.93,-495.18"/>
</g>
<!-- 3 -->
<g id="node4" class="node">
<title>3</title>
<polygon fill="#c1ffc1" stroke="none" points="172.87,-414 0,-414 0,-370 172.87,-370 172.87,-414"/>
<polygon fill="none" stroke="black" points="0,-370 0,-414 60.02,-414 60.02,-370 0,-370"/>
<text xml:space="preserve" text-anchor="start" x="5" y="-394" font-family="Arial" font-size="10.00">GELUTanh</text>
<text xml:space="preserve" text-anchor="start" x="13.33" y="-382" font-family="Arial" font-size="10.00">depth:1</text>
<polygon fill="none" stroke="black" points="60.02,-392 60.02,-414 103.38,-414 103.38,-392 60.02,-392"/>
<text xml:space="preserve" text-anchor="start" x="69.47" y="-399" font-family="Arial" font-size="10.00">input:</text>
<polygon fill="none" stroke="black" points="103.38,-392 103.38,-414 172.87,-414 172.87,-392 103.38,-392"/>
<text xml:space="preserve" text-anchor="start" x="108.38" y="-399" font-family="Arial" font-size="10.00">(1, 2, 10240) </text>
<polygon fill="none" stroke="black" points="60.02,-370 60.02,-392 103.38,-392 103.38,-370 60.02,-370"/>
<text xml:space="preserve" text-anchor="start" x="65.02" y="-377" font-family="Arial" font-size="10.00">output: </text>
<polygon fill="none" stroke="black" points="103.38,-370 103.38,-392 172.87,-392 172.87,-370 103.38,-370"/>
<text xml:space="preserve" text-anchor="start" x="108.38" y="-377" font-family="Arial" font-size="10.00">(1, 2, 10240) </text>
</g>
<!-- 2&#45;&gt;3 -->
<g id="edge3" class="edge">
<title>2&#45;&gt;3</title>
<path fill="none" stroke="black" d="M86.43,-450.16C86.43,-442.84 86.43,-433.86 86.43,-425.21"/>
<polygon fill="black" stroke="black" points="89.93,-425.31 86.43,-415.31 82.93,-425.31 89.93,-425.31"/>
</g>
<!-- 4 -->
<g id="node5" class="node">
<title>4</title>
<polygon fill="lightyellow" stroke="none" points="191.36,-334 53.5,-334 53.5,-300 191.36,-300 191.36,-334"/>
<polygon fill="none" stroke="black" points="53.5,-300 53.5,-334 124.66,-334 124.66,-300 53.5,-300"/>
<text xml:space="preserve" text-anchor="start" x="58.5" y="-319" font-family="Arial" font-size="10.00">hidden&#45;tensor</text>
<text xml:space="preserve" text-anchor="start" x="72.4" y="-307" font-family="Arial" font-size="10.00">depth:1</text>
<polygon fill="none" stroke="black" points="124.66,-300 124.66,-334 191.36,-334 191.36,-300 124.66,-300"/>
<text xml:space="preserve" text-anchor="start" x="129.66" y="-313" font-family="Arial" font-size="10.00">(1, 2, 10240)</text>
</g>
<!-- 3&#45;&gt;4 -->
<g id="edge6" class="edge">
<title>3&#45;&gt;4</title>
<path fill="none" stroke="black" d="M96.65,-370.28C100.69,-362.1 105.37,-352.61 109.62,-343.98"/>
<polygon fill="black" stroke="black" points="112.75,-345.54 114.04,-335.02 106.48,-342.44 112.75,-345.54"/>
</g>
<!-- 7 -->
<g id="node8" class="node">
<title>7</title>
<polygon fill="aliceblue" stroke="none" points="261.6,-264 89.27,-264 89.27,-220 261.6,-220 261.6,-264"/>
<polygon fill="none" stroke="black" points="89.27,-220 89.27,-264 132.64,-264 132.64,-220 89.27,-220"/>
<text xml:space="preserve" text-anchor="start" x="102.9" y="-244" font-family="Arial" font-size="10.00">mul</text>
<text xml:space="preserve" text-anchor="start" x="94.27" y="-232" font-family="Arial" font-size="10.00">depth:1</text>
<polygon fill="none" stroke="black" points="132.64,-242 132.64,-264 175.99,-264 175.99,-242 132.64,-242"/>
<text xml:space="preserve" text-anchor="start" x="142.08" y="-249" font-family="Arial" font-size="10.00">input:</text>
<polygon fill="none" stroke="black" points="175.99,-242 175.99,-264 261.6,-264 261.6,-242 175.99,-242"/>
<text xml:space="preserve" text-anchor="start" x="180.99" y="-249" font-family="Arial" font-size="10.00">2 x (1, 2, 10240) </text>
<polygon fill="none" stroke="black" points="132.64,-220 132.64,-242 175.99,-242 175.99,-220 132.64,-220"/>
<text xml:space="preserve" text-anchor="start" x="137.64" y="-227" font-family="Arial" font-size="10.00">output: </text>
<polygon fill="none" stroke="black" points="175.99,-220 175.99,-242 261.6,-242 261.6,-220 175.99,-220"/>
<text xml:space="preserve" text-anchor="start" x="189.05" y="-227" font-family="Arial" font-size="10.00">(1, 2, 10240) </text>
</g>
<!-- 4&#45;&gt;7 -->
<g id="edge5" class="edge">
<title>4&#45;&gt;7</title>
<path fill="none" stroke="black" d="M133.93,-300.16C139.73,-292.17 146.96,-282.21 153.75,-272.86"/>
<polygon fill="black" stroke="black" points="156.4,-275.17 159.44,-265.03 150.73,-271.06 156.4,-275.17"/>
</g>
<!-- 6 -->
<g id="node7" class="node">
<title>6</title>
<polygon fill="lightyellow" stroke="none" points="335.36,-409 197.5,-409 197.5,-375 335.36,-375 335.36,-409"/>
<polygon fill="none" stroke="black" points="197.5,-375 197.5,-409 268.66,-409 268.66,-375 197.5,-375"/>
<text xml:space="preserve" text-anchor="start" x="202.5" y="-394" font-family="Arial" font-size="10.00">hidden&#45;tensor</text>
<text xml:space="preserve" text-anchor="start" x="216.4" y="-382" font-family="Arial" font-size="10.00">depth:1</text>
<polygon fill="none" stroke="black" points="268.66,-375 268.66,-409 335.36,-409 335.36,-375 268.66,-375"/>
<text xml:space="preserve" text-anchor="start" x="273.66" y="-388" font-family="Arial" font-size="10.00">(1, 2, 10240)</text>
</g>
<!-- 5&#45;&gt;6 -->
<g id="edge8" class="edge">
<title>5&#45;&gt;6</title>
<path fill="none" stroke="black" d="M267.29,-520.11C267.11,-493.89 266.81,-448.89 266.62,-420.06"/>
<polygon fill="black" stroke="black" points="270.12,-420.29 266.55,-410.31 263.12,-420.34 270.12,-420.29"/>
</g>
<!-- 6&#45;&gt;7 -->
<g id="edge7" class="edge">
<title>6&#45;&gt;7</title>
<path fill="none" stroke="black" d="M256.69,-375.16C241.8,-350.94 213.09,-304.25 194.1,-273.36"/>
<polygon fill="black" stroke="black" points="197.31,-271.9 189.1,-265.22 191.35,-275.57 197.31,-271.9"/>
</g>
<!-- 8 -->
<g id="node9" class="node">
<title>8</title>
<polygon fill="lightyellow" stroke="none" points="244.36,-184 106.5,-184 106.5,-150 244.36,-150 244.36,-184"/>
<polygon fill="none" stroke="black" points="106.5,-150 106.5,-184 177.66,-184 177.66,-150 106.5,-150"/>
<text xml:space="preserve" text-anchor="start" x="111.5" y="-169" font-family="Arial" font-size="10.00">hidden&#45;tensor</text>
<text xml:space="preserve" text-anchor="start" x="125.4" y="-157" font-family="Arial" font-size="10.00">depth:1</text>
<polygon fill="none" stroke="black" points="177.66,-150 177.66,-184 244.36,-184 244.36,-150 177.66,-150"/>
<text xml:space="preserve" text-anchor="start" x="182.66" y="-163" font-family="Arial" font-size="10.00">(1, 2, 10240)</text>
</g>
<!-- 7&#45;&gt;8 -->
<g id="edge10" class="edge">
<title>7&#45;&gt;8</title>
<path fill="none" stroke="black" d="M175.43,-220.28C175.43,-212.46 175.43,-203.45 175.43,-195.13"/>
<polygon fill="black" stroke="black" points="178.93,-195.18 175.43,-185.18 171.93,-195.18 178.93,-195.18"/>
</g>
<!-- 9 -->
<g id="node10" class="node">
<title>9</title>
<polygon fill="#c1ffc1" stroke="none" points="253.54,-114 97.33,-114 97.33,-70 253.54,-70 253.54,-114"/>
<polygon fill="none" stroke="black" points="97.33,-70 97.33,-114 140.69,-114 140.69,-70 97.33,-70"/>
<text xml:space="preserve" text-anchor="start" x="105.11" y="-94" font-family="Arial" font-size="10.00">Linear</text>
<text xml:space="preserve" text-anchor="start" x="102.33" y="-82" font-family="Arial" font-size="10.00">depth:1</text>
<polygon fill="none" stroke="black" points="140.69,-92 140.69,-114 184.05,-114 184.05,-92 140.69,-92"/>
<text xml:space="preserve" text-anchor="start" x="150.14" y="-99" font-family="Arial" font-size="10.00">input:</text>
<polygon fill="none" stroke="black" points="184.05,-92 184.05,-114 253.54,-114 253.54,-92 184.05,-92"/>
<text xml:space="preserve" text-anchor="start" x="189.05" y="-99" font-family="Arial" font-size="10.00">(1, 2, 10240) </text>
<polygon fill="none" stroke="black" points="140.69,-70 140.69,-92 184.05,-92 184.05,-70 140.69,-70"/>
<text xml:space="preserve" text-anchor="start" x="145.69" y="-77" font-family="Arial" font-size="10.00">output: </text>
<polygon fill="none" stroke="black" points="184.05,-70 184.05,-92 253.54,-92 253.54,-70 184.05,-70"/>
<text xml:space="preserve" text-anchor="start" x="191.83" y="-77" font-family="Arial" font-size="10.00">(1, 2, 2560) </text>
</g>
<!-- 8&#45;&gt;9 -->
<g id="edge9" class="edge">
<title>8&#45;&gt;9</title>
<path fill="none" stroke="black" d="M175.43,-150.16C175.43,-142.84 175.43,-133.86 175.43,-125.21"/>
<polygon fill="black" stroke="black" points="178.93,-125.31 175.43,-115.31 171.93,-125.31 178.93,-125.31"/>
</g>
<!-- 10 -->
<g id="node11" class="node">
<title>10</title>
<polygon fill="lightyellow" stroke="none" points="240.47,-34 110.4,-34 110.4,0 240.47,0 240.47,-34"/>
<polygon fill="none" stroke="black" points="110.4,0 110.4,-34 179.32,-34 179.32,0 110.4,0"/>
<text xml:space="preserve" text-anchor="start" x="115.4" y="-19" font-family="Arial" font-size="10.00">output&#45;tensor</text>
<text xml:space="preserve" text-anchor="start" x="128.18" y="-7" font-family="Arial" font-size="10.00">depth:0</text>
<polygon fill="none" stroke="black" points="179.32,0 179.32,-34 240.47,-34 240.47,0 179.32,0"/>
<text xml:space="preserve" text-anchor="start" x="184.32" y="-13" font-family="Arial" font-size="10.00">(1, 2, 2560)</text>
</g>
<!-- 9&#45;&gt;10 -->
<g id="edge11" class="edge">
<title>9&#45;&gt;10</title>
<path fill="none" stroke="black" d="M175.43,-70.28C175.43,-62.46 175.43,-53.45 175.43,-45.13"/>
<polygon fill="black" stroke="black" points="178.93,-45.18 175.43,-35.18 171.93,-45.18 178.93,-45.18"/>
</g>
</g>
</svg>
